<?xml version="1.0" encoding="UTF-8" standalone="no"?>
<svg
   width="600"
   height="600"
   version="1.1"
   id="svg1"
   sodipodi:docname="bluesky.svg"
   inkscape:version="1.4 (e7c3feb1, 2024-10-09)"
   xmlns:inkscape="http://www.inkscape.org/namespaces/inkscape"
   xmlns:sodipodi="http://sodipodi.sourceforge.net/DTD/sodipodi-0.dtd"
   xmlns="http://www.w3.org/2000/svg"
   xmlns:svg="http://www.w3.org/2000/svg">
  <defs
     id="defs1" />
  <sodipodi:namedview
     id="namedview1"
     pagecolor="#000000"
     bordercolor="#000000"
     borderopacity="0.25"
     inkscape:showpageshadow="2"
     inkscape:pageopacity="0.0"
     inkscape:pagecheckerboard="0"
     inkscape:deskcolor="#d1d1d1"
     inkscape:zoom="0.51343976"
     inkscape:cx="369.07933"
     inkscape:cy="256.11573"
     inkscape:window-width="1728"
     inkscape:window-height="1052"
     inkscape:window-x="0"
     inkscape:window-y="65"
     inkscape:window-maximized="0"
     inkscape:current-layer="svg1" />
  <path
     id="path2"
     style="fill:#ffffff;stroke-width:23.1401"
     d="M 300 0 A 300 300 0 0 0 0 300 A 300 300 0 0 0 300 600 A 300 300 0 0 0 600 300 A 300 300 0 0 0 300 0 z M 107.2207 129.19922 C 127.22167 129.5016 151.93912 142.06264 170.80469 156.22656 L 170.80664 156.22656 C 223.1008 195.48571 279.35042 275.088 300.00195 317.80664 C 320.65506 275.09114 376.89958 195.48493 429.19531 156.22656 C 466.92801 127.89872 528.06445 105.98084 528.06445 175.72656 C 528.06445 189.65573 520.07848 292.73947 515.39453 309.47461 C 499.11316 367.65752 439.78365 382.49739 387.00977 373.51562 C 479.2575 389.21582 502.72455 441.21985 452.04492 493.22461 C 355.79429 591.9918 313.70578 468.44468 302.91602 436.78711 C 300.93894 430.98353 300.0136 428.26754 300 430.57617 C 299.9863 428.26746 299.06105 430.98352 297.08398 436.78711 C 286.29894 468.44468 244.21121 591.99494 147.95508 493.22461 C 97.274663 441.21985 120.74093 389.21268 212.99023 373.51562 C 160.21478 382.49739 100.88449 367.65744 84.605469 309.47461 C 79.921362 292.7379 71.935547 189.65416 71.935547 175.72656 C 71.935547 140.8537 87.219737 128.89684 107.2207 129.19922 z " />
</svg>
