<?xml version="1.0" encoding="UTF-8" standalone="no"?>
<svg
   xmlns:dc="http://purl.org/dc/elements/1.1/"
   xmlns:cc="http://creativecommons.org/ns#"
   xmlns:rdf="http://www.w3.org/1999/02/22-rdf-syntax-ns#"
   xmlns:svg="http://www.w3.org/2000/svg"
   xmlns="http://www.w3.org/2000/svg"
   width="57.329323mm"
   height="57.329308mm"
   viewBox="0 0 57.329323 57.329307"
   version="1.1"
   id="svg5192">
  <defs
     id="defs5186" />
  <metadata
     id="metadata5189">
    <rdf:RDF>
      <cc:Work
         rdf:about="">
        <dc:format>image/svg+xml</dc:format>
        <dc:type
           rdf:resource="http://purl.org/dc/dcmitype/StillImage" />
        <dc:title></dc:title>
      </cc:Work>
    </rdf:RDF>
  </metadata>
  <g
     id="layer1"
     transform="translate(-66.015607,-126.21452)" />
  <g
     id="layer2" />
  <g
     id="layer4">
    <path
       id="path5746"
       d="M 3.741738,77.10751 Z"
       style="fill:none;stroke:#000000;stroke-width:0.26458332px;stroke-linecap:butt;stroke-linejoin:miter;stroke-opacity:1" />
    <g
       id="g869">
      <path
         style="fill:#ffffff;fill-opacity:1;stroke:none;stroke-width:2.5;stroke-linecap:round;stroke-linejoin:round;stroke-miterlimit:4;stroke-dasharray:none;stroke-opacity:1;paint-order:normal"
         d="M 28.6644,0 A 28.664656,28.664656 0 0 0 0,28.66491 28.664656,28.664656 0 0 0 28.6644,57.32931 28.664656,28.664656 0 0 0 57.329323,28.66491 28.664656,28.664656 0 0 0 28.6644,0 Z M 8.792229,14.53813 h 39.744864 c 1.21421,0 2.19211,0.97738 2.19211,2.19159 V 40.6001 c 0,1.21421 -0.9779,2.1916 -2.19211,2.1916 H 8.792229 c -1.214213,0 -2.192116,-0.97739 -2.192116,-2.1916 V 16.72972 c 0,-1.21421 0.977903,-2.19159 2.192116,-2.19159 z"
         id="path5742" />
      <g
         id="g5758"
         transform="translate(-66.015607,-126.07278)"
         style="fill:#000000;fill-opacity:1">
        <path
           id="path5752"
           d="m 72.66428,140.70386 21.92426,20.27196"
           style="fill:#000000;fill-opacity:1;stroke:#ffffff;stroke-width:2.5;stroke-linecap:round;stroke-linejoin:round;stroke-miterlimit:4;stroke-dasharray:none;stroke-opacity:1" />
        <path
           id="path5754"
           d="M 76.598313,171.23374 90.005579,158.09375"
           style="fill:#000000;fill-opacity:1;stroke:#ffffff;stroke-width:2.5;stroke-linecap:butt;stroke-linejoin:miter;stroke-miterlimit:4;stroke-dasharray:none;stroke-opacity:1" />
      </g>
      <g
         style="fill:#000000;fill-opacity:1"
         transform="matrix(-1,0,0,1,123.16147,-126.07278)"
         id="g860">
        <path
           style="fill:#000000;fill-opacity:1;stroke:#ffffff;stroke-width:2.5;stroke-linecap:round;stroke-linejoin:round;stroke-miterlimit:4;stroke-dasharray:none;stroke-opacity:1"
           d="m 72.66428,140.70386 21.92426,20.27196"
           id="path856" />
        <path
           style="fill:#000000;fill-opacity:1;stroke:#ffffff;stroke-width:2.5;stroke-linecap:butt;stroke-linejoin:miter;stroke-miterlimit:4;stroke-dasharray:none;stroke-opacity:1"
           d="M 76.598313,171.23374 90.005579,158.09375"
           id="path858" />
      </g>
    </g>
  </g>
</svg>
