<?xml version="1.0" standalone="no"?><!-- Generator: Gravit.io --><svg xmlns="http://www.w3.org/2000/svg" xmlns:xlink="http://www.w3.org/1999/xlink" style="isolation:isolate" viewBox="224.167 131.472 885 469.528" width="885" height="469.528"><g id="Group"><g id="Logo"><path d=" M 804.471 203.837 L 747.659 203.837 C 734.125 203.837 723.065 214.897 723.065 228.481 L 723.065 337.661 C 723.223 362.192 698.92 377.5 676.756 378.92 L 570.556 378.92 C 526.116 378.92 487.889 344.783 485.819 300.444 C 483.596 253.075 521.319 213.937 568.183 213.937 L 568.284 213.937 C 572.273 213.937 576.011 211.615 577.576 207.928 C 596.16 163.035 640.347 131.472 691.908 131.472 C 741.901 131.472 784.977 161.115 804.471 203.837" fill="rgb(44,71,120)"/><path d=" M 815.632 280.951 C 815.632 285.244 817.348 289.132 820.176 291.909 C 822.953 294.737 826.843 296.455 831.135 296.455 L 851.739 296.455 C 866.283 296.455 877.997 308.473 877.493 323.168 C 876.988 337.107 865.121 348.015 851.132 348.015 L 817.803 348.015 C 815.783 348.015 814.065 349.277 813.409 351.196 C 807.804 367.305 792.452 378.92 774.423 378.92 L 703.673 378.92 C 722.751 373.449 733.165 355.287 733.165 337.661 L 733.165 228.481 C 733.165 220.452 739.68 213.937 747.659 213.937 L 871.685 213.937 C 885.675 213.937 897.641 224.845 898.096 238.833 C 898.601 253.479 886.885 265.499 872.343 265.499 L 831.135 265.499 C 822.549 265.499 815.632 272.416 815.632 280.951" fill="rgb(62,105,169)"/></g><path d=" M 243.367 547 C 243.367 555.4 250.167 562.2 258.567 562.2 C 266.967 562.2 273.767 555.4 273.767 547 L 273.767 479.8 L 286.567 479.8 C 293.567 479.8 299.167 474.4 299.167 467.4 C 299.167 460.4 293.567 455 286.567 455 L 273.367 455 L 273.367 450.8 C 273.367 442.8 277.367 439.2 284.367 439.2 L 286.967 439.2 C 293.767 439.2 299.367 433.4 299.367 426.6 C 299.367 419.8 294.167 415.2 288.967 414.4 C 285.567 413.8 281.367 413.6 276.567 413.6 C 265.767 413.6 257.567 416.4 251.967 422 C 246.367 427.6 243.367 436.2 243.367 448 L 243.367 454.8 L 242.167 454.8 C 235.167 454.8 229.567 460.4 229.567 467.4 C 229.567 474.4 235.167 479.8 242.167 479.8 L 243.367 479.8 L 243.367 547 Z  M 304.567 547 C 304.567 555.4 311.367 562.2 319.767 562.2 C 328.167 562.2 334.967 555.4 334.967 547 L 334.967 518.6 C 334.967 497 343.567 485.2 358.967 481.6 C 365.167 480.2 370.367 475.4 370.367 467.4 C 370.367 458.8 364.967 452.6 355.567 452.6 C 346.567 452.6 339.367 462.2 334.967 472.6 L 334.967 467.8 C 334.967 459.4 328.167 452.6 319.767 452.6 C 311.367 452.6 304.567 459.4 304.567 467.8 L 304.567 547 Z  M 402.767 499 C 405.167 485.2 413.367 476.2 425.967 476.2 C 438.767 476.2 446.767 485.4 448.567 499 L 402.767 499 Z  M 466.167 550.4 C 468.367 548.4 470.167 545.4 470.167 541.4 C 470.167 534.6 465.167 529.4 458.367 529.4 C 455.167 529.4 453.167 530.2 450.967 531.8 C 444.767 536.4 437.767 539 429.367 539 C 415.767 539 406.167 531.8 403.167 518 L 463.367 518 C 471.367 518 477.567 512.2 477.567 503.4 C 477.567 481.2 461.767 451.8 425.967 451.8 C 394.767 451.8 372.967 477 372.967 507.6 L 372.967 508 C 372.967 540.8 396.767 563.4 428.967 563.4 C 444.567 563.4 456.767 558.4 466.167 550.4 Z  M 515.367 499 C 517.767 485.2 525.967 476.2 538.567 476.2 C 551.367 476.2 559.367 485.4 561.167 499 L 515.367 499 Z  M 578.767 550.4 C 580.967 548.4 582.767 545.4 582.767 541.4 C 582.767 534.6 577.767 529.4 570.967 529.4 C 567.767 529.4 565.767 530.2 563.567 531.8 C 557.367 536.4 550.367 539 541.967 539 C 528.367 539 518.767 531.8 515.767 518 L 575.967 518 C 583.967 518 590.167 512.2 590.167 503.4 C 590.167 481.2 574.367 451.8 538.567 451.8 C 507.367 451.8 485.567 477 485.567 507.6 L 485.567 508 C 485.567 540.8 509.367 563.4 541.567 563.4 C 557.167 563.4 569.367 558.4 578.767 550.4 Z  M 653.967 563.4 C 671.567 563.4 682.967 557.8 691.967 549.6 C 694.567 547.2 696.367 544 696.367 540 C 696.367 532.8 690.767 527 683.567 527 C 679.967 527 676.967 528.6 675.367 529.8 C 669.567 534.4 663.367 537.2 655.367 537.2 C 638.767 537.2 628.167 524 628.167 507.6 L 628.167 507.2 C 628.167 491.4 638.967 478 654.167 478 C 662.167 478 667.767 480.6 673.167 484.8 C 674.967 486.2 677.967 487.8 681.967 487.8 C 689.567 487.8 695.767 481.8 695.767 474.2 C 695.767 469 692.967 465.4 690.967 463.8 C 681.967 456.2 670.567 451.8 654.367 451.8 C 621.567 451.8 598.167 477 598.167 507.6 L 598.167 508 C 598.167 538.6 621.767 563.4 653.967 563.4 Z  M 708.967 547 C 708.967 555.4 715.767 562.2 724.167 562.2 C 732.567 562.2 739.367 555.4 739.367 547 L 739.367 429 C 739.367 420.6 732.567 413.8 724.167 413.8 C 715.767 413.8 708.967 420.6 708.967 429 L 708.967 547 Z  M 810.567 563.4 C 843.967 563.4 868.767 538.4 868.767 507.6 L 868.767 507.2 C 868.767 476.4 844.167 451.8 810.967 451.8 C 777.567 451.8 752.767 476.8 752.767 507.6 L 752.767 508 C 752.767 538.8 777.367 563.4 810.567 563.4 Z  M 810.967 537.2 C 794.167 537.2 782.767 523.4 782.767 507.6 L 782.767 507.2 C 782.767 491.4 793.167 478 810.567 478 C 827.367 478 838.767 491.8 838.767 507.6 L 838.767 508 C 838.767 523.8 828.367 537.2 810.967 537.2 Z  M 978.167 467.8 C 978.167 459.4 971.367 452.6 962.967 452.6 C 954.567 452.6 947.767 459.4 947.767 467.8 L 947.767 513.6 C 947.767 528 940.367 535.4 928.767 535.4 C 917.167 535.4 910.367 528 910.367 513.6 L 910.367 467.8 C 910.367 459.4 903.567 452.6 895.167 452.6 C 886.767 452.6 879.967 459.4 879.967 467.8 L 879.967 523.2 C 879.967 547.8 893.367 563 916.367 563 C 931.767 563 940.767 554.8 947.767 545.8 L 947.767 547 C 947.767 555.4 954.567 562.2 962.967 562.2 C 971.367 562.2 978.167 555.4 978.167 547 L 978.167 467.8 Z  M 1103.167 429 C 1103.167 420.6 1096.367 413.8 1087.967 413.8 C 1079.567 413.8 1072.767 420.6 1072.767 429 L 1072.767 467.8 C 1065.567 459.2 1055.567 451.8 1039.367 451.8 C 1013.967 451.8 990.567 471.4 990.567 507.2 L 990.567 507.6 C 990.567 543.4 1014.367 563 1039.367 563 C 1055.167 563 1065.367 555.6 1072.767 545.6 L 1072.767 547 C 1072.767 555.4 1079.567 562.2 1087.967 562.2 C 1096.367 562.2 1103.167 555.4 1103.167 547 L 1103.167 429 Z  M 1047.167 477.6 C 1061.367 477.6 1073.167 489.4 1073.167 507.2 L 1073.167 507.6 C 1073.167 525.4 1061.367 537.2 1047.167 537.2 C 1032.967 537.2 1020.967 525.4 1020.967 507.6 L 1020.967 507.2 C 1020.967 489.2 1032.967 477.6 1047.167 477.6 Z " fill-rule="evenodd" fill="rgb(44,71,120)"/></g></svg>