<?xml version="1.0" standalone="no"?><!-- Generator: Gravit.io --><svg xmlns="http://www.w3.org/2000/svg" xmlns:xlink="http://www.w3.org/1999/xlink" style="isolation:isolate" viewBox="68 17 161.033 157.058" width="161.033" height="157.058"><g id="Group"><path d=" M 148.517 17 C 104.055 17 68 53.048 68 97.517 C 68 133.092 91.071 163.273 123.063 173.92 C 127.087 174.665 128.564 172.173 128.564 170.047 C 128.564 168.127 128.489 161.784 128.455 155.056 C 106.055 159.927 101.328 145.556 101.328 145.556 C 97.665 136.249 92.388 133.775 92.388 133.775 C 85.083 128.777 92.939 128.88 92.939 128.88 C 101.024 129.447 105.281 137.179 105.281 137.179 C 112.463 149.487 124.117 145.928 128.712 143.871 C 129.435 138.667 131.521 135.113 133.824 133.104 C 115.94 131.068 97.14 124.164 97.14 93.312 C 97.14 84.521 100.285 77.339 105.436 71.7 C 104.6 69.671 101.844 61.483 106.216 50.392 C 106.216 50.392 112.977 48.228 128.364 58.645 C 134.787 56.861 141.675 55.967 148.517 55.936 C 155.36 55.967 162.253 56.861 168.688 58.645 C 184.056 48.228 190.808 50.392 190.808 50.392 C 195.191 61.483 192.433 69.671 191.597 71.7 C 196.76 77.339 199.884 84.521 199.884 93.312 C 199.884 124.237 181.048 131.047 163.119 133.04 C 166.007 135.539 168.58 140.439 168.58 147.951 C 168.58 158.724 168.487 167.395 168.487 170.047 C 168.487 172.189 169.936 174.7 174.017 173.909 C 205.992 163.251 229.033 133.08 229.033 97.517 C 229.033 53.048 192.984 17 148.517 17" fill-rule="evenodd" fill="rgb(27,24,23)"/><path d=" M 98.496 132.605 C 98.319 133.007 97.689 133.125 97.116 132.851 C 96.532 132.588 96.204 132.043 96.393 131.641 C 96.567 131.231 97.197 131.116 97.78 131.389 C 98.365 131.653 98.699 132.204 98.496 132.605 L 98.496 132.605 Z " fill="rgb(27,24,23)"/><path d=" M 101.757 136.243 C 101.373 136.599 100.623 136.433 100.113 135.871 C 99.587 135.309 99.488 134.559 99.877 134.197 C 100.273 133.843 101.001 134.009 101.529 134.569 C 102.056 135.137 102.159 135.883 101.757 136.243 L 101.757 136.243 Z " fill="rgb(27,24,23)"/><path d=" M 104.932 140.88 C 104.439 141.223 103.632 140.901 103.133 140.185 C 102.64 139.469 102.64 138.611 103.144 138.267 C 103.644 137.923 104.439 138.233 104.944 138.943 C 105.436 139.671 105.436 140.529 104.932 140.88 L 104.932 140.88" fill="rgb(27,24,23)"/><path d=" M 109.281 145.36 C 108.84 145.847 107.9 145.716 107.212 145.052 C 106.508 144.403 106.312 143.481 106.755 142.995 C 107.201 142.507 108.147 142.644 108.84 143.303 C 109.539 143.951 109.752 144.879 109.281 145.36 L 109.281 145.36 Z " fill="rgb(27,24,23)"/><path d=" M 115.281 147.961 C 115.087 148.592 114.181 148.879 113.269 148.611 C 112.359 148.335 111.763 147.596 111.947 146.959 C 112.136 146.324 113.045 146.025 113.964 146.312 C 114.873 146.587 115.471 147.32 115.281 147.961 L 115.281 147.961 Z " fill="rgb(27,24,23)"/><path d=" M 121.871 148.444 C 121.893 149.108 121.12 149.659 120.163 149.671 C 119.2 149.692 118.421 149.155 118.411 148.501 C 118.411 147.831 119.167 147.285 120.129 147.269 C 121.087 147.251 121.871 147.784 121.871 148.444 L 121.871 148.444 Z " fill="rgb(27,24,23)"/><path d=" M 128.003 147.4 C 128.117 148.048 127.452 148.713 126.501 148.891 C 125.567 149.061 124.701 148.661 124.583 148.019 C 124.467 147.355 125.144 146.689 126.077 146.517 C 127.029 146.352 127.881 146.741 128.003 147.4 L 128.003 147.4" fill="rgb(27,24,23)"/></g></svg>