<?xml version="1.0" standalone="no"?><!-- Generator: Gravit.io --><svg xmlns="http://www.w3.org/2000/svg" xmlns:xlink="http://www.w3.org/1999/xlink" style="isolation:isolate" viewBox="627.029 271.344 568.567 292.469" width="568.567" height="292.469"><path d=" M 911.313 285.157 L 821.156 285.157 L 730.999 285.157 L 685.921 351.368 L 640.843 417.579 L 685.921 483.789 L 730.999 550 L 821.156 550 L 911.313 550 L 1001.47 550 L 1091.627 550 L 1136.705 483.789 L 1181.783 417.579 L 1136.705 351.368 L 1091.627 285.157 L 1001.47 285.157 L 911.313 285.157 Z " fill="rgb(153,44,44)" vector-effect="non-scaling-stroke" stroke-width="9.209" stroke="rgb(98,9,9)" stroke-linejoin="miter" stroke-linecap="square" stroke-miterlimit="3"/><g transform="matrix(1,0,0,1,682.705,275)"><text transform="matrix(1,0,0,1,0,198)" style="font-family:&quot;Palanquin Dark&quot;;font-weight:400;font-size:150px;font-style:normal;fill:#000000;stroke:none;">G</text><text transform="matrix(1,0,0,1,98.4,198)" style="font-family:&quot;Palanquin Dark&quot;;font-weight:400;font-size:50px;font-style:normal;fill:#000000;stroke:none;">lacier</text><text transform="matrix(1,0,0,1,219.75,198)" style="font-family:&quot;Palanquin Dark&quot;;font-weight:400;font-size:150px;font-style:normal;fill:#000000;stroke:none;">B</text><text transform="matrix(1,0,0,1,317.4,198)" style="font-family:&quot;Palanquin Dark&quot;;font-weight:400;font-size:50px;font-style:normal;fill:#000000;stroke:none;">ackup</text></g></svg>