<?xml version="1.0" encoding="UTF-8" standalone="no"?>
<svg
   xmlns:dc="http://purl.org/dc/elements/1.1/"
   xmlns:cc="http://creativecommons.org/ns#"
   xmlns:rdf="http://www.w3.org/1999/02/22-rdf-syntax-ns#"
   xmlns:svg="http://www.w3.org/2000/svg"
   xmlns="http://www.w3.org/2000/svg"
   id="svg5192"
   version="1.1"
   viewBox="0 0 112.37867 112.37919"
   height="112.37919mm"
   width="112.37867mm">
  <defs
     id="defs5186">
	
	
	
</defs>
  <metadata
     id="metadata5189">
    <rdf:RDF>
      <cc:Work
         rdf:about="">
        <dc:format>image/svg+xml</dc:format>
        <dc:type
           rdf:resource="http://purl.org/dc/dcmitype/StillImage" />
        <dc:title></dc:title>
      </cc:Work>
    </rdf:RDF>
  </metadata>
  <g
     transform="translate(-63.411012,-219.10016)"
     id="layer1" />
  <g
     transform="translate(-63.411012,-219.10016)"
     id="layer3">
    <path
       id="path5746"
       d="M 69.757345,203.32203 Z"
       style="fill:none;stroke:#000000;stroke-width:0.26458332px;stroke-linecap:butt;stroke-linejoin:miter;stroke-opacity:1" />
    <g
       id="layer4" />
    <g
       id="g6025">
      <path
         style="fill:#ffffff;fill-opacity:1;stroke:none;stroke-width:11.35130501;stroke-linecap:round;stroke-linejoin:round;stroke-miterlimit:4;stroke-dasharray:none;stroke-opacity:1;paint-order:normal"
         d="M 289.36719,403.42578 A 212.36987,212.36987 0 0 0 76.998047,615.79492 212.36987,212.36987 0 0 0 289.36719,828.16602 212.36987,212.36987 0 0 0 501.73633,615.79492 212.36987,212.36987 0 0 0 289.36719,403.42578 Z m 117.02734,56.40234 c 14.06886,0.31773 25.60678,11.45249 26.01367,25.41797 l 0.92969,32.34571 c 0.002,0.0949 0.004,0.19186 0.004,0.28711 h -0.004 c 0,2.59899 -1.01214,5.09977 -2.82812,6.96875 l -2.44336,2.51562 0.65625,22.72266 c 0.19691,8.579 -6.48438,15.59399 -15.10938,15.83203 l -12.17969,0.33984 0.33399,11.55274 c 0.004,0.14513 0.008,0.29646 0.008,0.44726 0,8.39501 -6.64113,15.15278 -15.11914,15.38477 l -12.17383,0.33594 0.33399,11.55468 c 0.004,0.15421 0.008,0.29566 0.008,0.4375 0,8.4 -6.64207,15.16153 -15.1211,15.39453 l -24.32031,0.67774 c -2.127,2.09299 -5.59944,5.76302 -9.23047,9.70703 2.241,3.89798 3.46094,8.34455 3.46094,12.89453 0,6.77201 -2.61996,13.19591 -7.37695,18.08594 -0.19389,0.19994 -0.39544,0.39317 -0.60547,0.57617 -0.55699,0.48302 -1.1751,1.00612 -1.82813,1.53711 0.45502,3.93702 0.6836,7.90338 0.6836,11.85937 0,27.55303 -10.77379,53.45366 -30.3418,72.93165 -40.36199,40.18201 -106.03544,40.18201 -146.39844,0 -19.569,-19.47999 -30.3457,-45.3835 -30.3457,-72.9375 0,-27.55401 10.77575,-53.45459 30.34375,-72.9336 23.828,-23.72198 57.30121,-34.28316 90.36719,-28.74219 4.08,-2.62299 8.83061,-4.09838 13.80859,-4.23437 4.26902,-0.11717 8.41025,0.74625 12.15625,2.49023 L 370.51562,463.50781 c 1.80601,-1.79399 4.22749,-2.83136 6.77149,-2.90234 l 27.73828,-0.77344 c 0.45881,-0.0125 0.91531,-0.0141 1.36914,-0.004 z"
         id="path5883"
         transform="matrix(0.26458333,0,0,0.26458333,43.038612,112.36042)" />
      <path
         id="path5819"
         d="m 107.02038,293.56671 c 0,2.47729 -0.96811,4.80563 -2.72653,6.55611 -3.62348,3.60653 -9.518135,3.60627 -13.14028,0 -1.758421,-1.75048 -2.727325,-4.07935 -2.727325,-6.55691 0,-2.47755 0.968639,-4.80642 2.727589,-6.5569 3.622146,-3.60601 9.516536,-3.60548 13.138956,7.9e-4 1.75869,1.75022 2.72759,4.07882 2.72759,6.55691 z m -13.302204,-8e-4 c 0,1.05966 0.415131,2.05635 1.168929,2.8067 1.563952,1.55708 4.108979,1.55708 5.673465,-2.6e-4 0.75327,-0.74983 1.16814,-1.74651 1.16814,-2.80564 0,-1.05966 -0.41514,-2.05608 -1.16894,-2.80644 -1.56448,-1.55733 -4.108978,-1.5576 -5.672665,-10e-4 -0.753798,0.7501 -1.168929,1.74705 -1.168929,2.8067 z"
         style="fill:#ffffff;fill-opacity:1;stroke:none;stroke-width:0.26458332" />
      <path
         id="path5821"
         d="m 147.8932,246.79527 c 0,0.67892 -0.25956,1.35811 -0.7792,1.8751 l -23.57437,23.46802 c -1.03558,1.03081 -2.71066,1.02711 -3.74174,-0.008 -1.03055,-1.03505 -1.02764,-2.71066 0.008,-3.74174 l 23.57437,-23.46801 c 1.03558,-1.03082 2.71066,-1.02711 3.74174,0.008 0.51382,0.5162 0.77073,1.19141 0.77073,1.86663 z"
         style="fill:#ffffff;fill-opacity:1;stroke-width:0.26458332" />
    </g>
    <g
       transform="matrix(0,-0.26458333,0.26458333,0,73.040458,318.67436)"
       id="g5825">
</g>
    <g
       transform="matrix(0,-0.26458333,0.26458333,0,73.040458,318.67436)"
       id="g5827">
</g>
    <g
       transform="matrix(0,-0.26458333,0.26458333,0,73.040458,318.67436)"
       id="g5829">
</g>
    <g
       transform="matrix(0,-0.26458333,0.26458333,0,73.040458,318.67436)"
       id="g5831">
</g>
    <g
       transform="matrix(0,-0.26458333,0.26458333,0,73.040458,318.67436)"
       id="g5833">
</g>
    <g
       transform="matrix(0,-0.26458333,0.26458333,0,73.040458,318.67436)"
       id="g5835">
</g>
    <g
       transform="matrix(0,-0.26458333,0.26458333,0,73.040458,318.67436)"
       id="g5837">
</g>
    <g
       transform="matrix(0,-0.26458333,0.26458333,0,73.040458,318.67436)"
       id="g5839">
</g>
    <g
       transform="matrix(0,-0.26458333,0.26458333,0,73.040458,318.67436)"
       id="g5841">
</g>
    <g
       transform="matrix(0,-0.26458333,0.26458333,0,73.040458,318.67436)"
       id="g5843">
</g>
    <g
       transform="matrix(0,-0.26458333,0.26458333,0,73.040458,318.67436)"
       id="g5845">
</g>
    <g
       transform="matrix(0,-0.26458333,0.26458333,0,73.040458,318.67436)"
       id="g5847">
</g>
    <g
       transform="matrix(0,-0.26458333,0.26458333,0,73.040458,318.67436)"
       id="g5849">
</g>
    <g
       transform="matrix(0,-0.26458333,0.26458333,0,73.040458,318.67436)"
       id="g5851">
</g>
    <g
       transform="matrix(0,-0.26458333,0.26458333,0,73.040458,318.67436)"
       id="g5853">
</g>
  </g>
</svg>
