<?xml version="1.0" encoding="UTF-8" standalone="no"?>
<svg
   width="400"
   height="400"
   viewBox="0 0 374.99999 374.99999"
   version="1.1"
   id="svg62"
   sodipodi:docname="mastodon.svg"
   inkscape:version="1.2.2 (b0a8486, 2022-12-01)"
   xmlns:inkscape="http://www.inkscape.org/namespaces/inkscape"
   xmlns:sodipodi="http://sodipodi.sourceforge.net/DTD/sodipodi-0.dtd"
   xmlns="http://www.w3.org/2000/svg"
   xmlns:svg="http://www.w3.org/2000/svg">
  <defs
     id="defs66" />
  <sodipodi:namedview
     id="namedview64"
     pagecolor="#c8c8c8"
     bordercolor="#000000"
     borderopacity="0.25"
     inkscape:showpageshadow="2"
     inkscape:pageopacity="0"
     inkscape:pagecheckerboard="0"
     inkscape:deskcolor="#d1d1d1"
     inkscape:document-units="mm"
     showgrid="false"
     inkscape:zoom="0.95362368"
     inkscape:cx="120.59264"
     inkscape:cy="241.18529"
     inkscape:window-width="1792"
     inkscape:window-height="1120"
     inkscape:window-x="0"
     inkscape:window-y="0"
     inkscape:window-maximized="0"
     inkscape:current-layer="svg62" />
  <path
     id="path280"
     style="fill:#ffffff;stroke-width:2.11603"
     d="M 187.49999 0 A 187.5 187.5 0 0 0 0 187.49999 A 187.5 187.5 0 0 0 187.49999 374.99999 A 187.5 187.5 0 0 0 374.99999 187.49999 A 187.5 187.5 0 0 0 187.49999 0 z M 191.02294 52.529295 L 191.89636 52.529295 C 227.48497 52.820256 261.74068 56.673328 281.68945 65.83557 C 281.68945 65.83557 321.25487 83.535014 321.25487 143.92273 C 321.25487 143.92273 321.75026 188.47654 315.73608 219.40978 C 311.9191 239.04659 281.54791 260.53781 246.66869 264.70275 C 228.4807 266.87293 210.57424 268.86719 191.47888 267.99133 C 160.25016 266.56054 135.60791 260.5371 135.60791 260.5371 C 135.60791 263.57717 135.7951 266.47256 136.17004 269.17968 C 140.23 299.99895 166.7302 301.8454 191.83227 302.70629 C 217.16828 303.57317 239.729 296.46056 239.729 296.46056 L 240.77087 319.36523 C 240.77087 319.36523 223.04805 328.88144 191.47888 330.63171 C 174.07077 331.58858 152.4558 330.19262 127.28027 323.52904 C 72.678763 309.07703 63.287998 250.87535 61.851195 191.81945 C 61.413254 174.28535 61.682738 157.75083 61.682738 143.92273 C 61.682738 83.535014 101.25 65.83557 101.25 65.83557 C 121.20025 56.673328 155.43434 52.820256 191.02294 52.529295 z M 150.74524 99.713742 C 137.93249 99.713742 127.61042 104.21591 119.729 113.00171 C 112.08604 121.78751 108.27942 133.66446 108.27942 148.60839 L 108.27942 221.7279 L 137.24853 221.7279 L 137.24853 150.75805 C 137.24853 135.79761 143.54326 128.20312 156.13403 128.20312 C 170.05514 128.20312 177.03369 137.2092 177.03369 155.02075 L 177.03369 193.8684 L 205.83251 193.8684 L 205.83251 155.02075 C 205.83251 137.2092 212.80924 128.20312 226.73034 128.20312 C 239.32111 128.20312 245.61401 135.79761 245.61401 150.75805 L 245.61401 221.7279 L 274.58312 221.7279 L 274.58312 148.60839 C 274.58312 133.66446 270.77864 121.78751 263.1372 113.00171 C 255.25429 104.21591 244.93221 99.713742 232.12097 99.713742 C 217.29549 99.713742 206.07027 105.40969 198.64929 116.80664 L 191.4331 128.90442 L 184.21691 116.80664 C 176.79443 105.40969 165.56919 99.713742 150.74524 99.713742 z " />
</svg>
