<?xml version="1.0" encoding="UTF-8" standalone="no"?>
<!-- Generator: Adobe Illustrator 20.0.0, SVG Export Plug-In . SVG Version: 6.00 Build 0)  -->

<svg
   version="1.1"
   id="White"
   x="0px"
   y="0px"
   viewBox="0 0 400 400"
   style="enable-background:new 0 0 400 400;"
   xml:space="preserve"
   sodipodi:docname="twitter.svg"
   inkscape:version="1.2.2 (b0a8486, 2022-12-01)"
   xmlns:inkscape="http://www.inkscape.org/namespaces/inkscape"
   xmlns:sodipodi="http://sodipodi.sourceforge.net/DTD/sodipodi-0.dtd"
   xmlns="http://www.w3.org/2000/svg"
   xmlns:svg="http://www.w3.org/2000/svg"><defs
   id="defs9" /><sodipodi:namedview
   id="namedview7"
   pagecolor="#505050"
   bordercolor="#eeeeee"
   borderopacity="1"
   inkscape:showpageshadow="0"
   inkscape:pageopacity="0"
   inkscape:pagecheckerboard="0"
   inkscape:deskcolor="#505050"
   showgrid="false"
   inkscape:zoom="0.59"
   inkscape:cx="-50.847458"
   inkscape:cy="200"
   inkscape:window-width="1792"
   inkscape:window-height="1120"
   inkscape:window-x="0"
   inkscape:window-y="0"
   inkscape:window-maximized="0"
   inkscape:current-layer="White" />
<style
   type="text/css"
   id="style2">
	.st0{fill:#FFFFFF;}
</style>

<path
   id="path282"
   style="fill:#ffffff;stroke-width:2.18519"
   d="M 200 0 A 200 200 0 0 0 0 200 A 200 200 0 0 0 200 400 A 200 200 0 0 0 400 200 A 200 200 0 0 0 200 0 z M 265.94727 93.894531 C 282.55518 93.894531 297.48955 100.82344 308.00391 112.05469 C 321.14686 109.42611 333.45268 104.64765 344.56445 98.076172 C 340.26311 111.57757 331.18447 122.80768 319.23633 129.97656 C 330.9455 128.54278 342.05663 125.43678 352.33203 120.89648 C 344.56574 132.48617 334.76836 142.64286 323.53711 150.76758 C 323.65657 153.15722 323.65625 155.66863 323.65625 158.17773 C 323.65625 234.28738 265.70852 322.10547 159.72852 322.10547 C 127.22958 322.10547 96.87853 312.54506 71.667969 296.05664 C 76.208259 296.65405 80.748431 296.89453 85.408203 296.89453 C 112.41098 296.89453 137.26409 287.69434 156.97852 272.28125 C 131.76794 271.80333 110.50125 255.19629 103.21289 232.25586 C 106.79734 232.97275 110.38005 233.33008 114.08398 233.33008 C 119.34115 233.33008 124.4805 232.61313 129.25977 231.29883 C 102.85437 225.92216 83.019531 202.74186 83.019531 174.7832 L 83.019531 174.06641 C 90.785813 178.36775 99.627378 180.99737 109.06641 181.23633 C 93.533815 170.96093 83.378906 153.27762 83.378906 133.32422 C 83.378906 122.80987 86.245785 112.89333 91.144531 104.41016 C 119.5811 139.29871 161.99811 162.23734 209.91016 164.62695 C 208.83483 160.44511 208.35547 156.02466 208.35547 151.48438 C 208.35547 119.70234 234.16521 93.894531 265.94727 93.894531 z " /></svg>
